<svg data-v-423bf9ae="" xmlns="http://www.w3.org/2000/svg" viewBox="0 0 273 111" class="iconLeft"><!----><!----><!----><g data-v-423bf9ae="" id="c407972e-2939-4034-b554-3811b3f24b4e" fill="black" transform="matrix(5.4347825050354,0,0,5.4347825050354,107.1150894165039,13.341667175292969)"><path d="M9.17 13.05L7.69 13.05L7.69 13.05Q7.45 12.42 7.24 11.81L7.24 11.81L7.24 11.81Q7.03 11.20 6.80 10.57L6.80 10.57L2.41 10.57L1.53 13.05L0.11 13.05L0.11 13.05Q0.67 11.51 1.16 10.20L1.16 10.20L1.16 10.20Q1.65 8.89 2.12 7.71L2.12 7.71L2.12 7.71Q2.59 6.54 3.05 5.47L3.05 5.47L3.05 5.47Q3.51 4.40 4.02 3.35L4.02 3.35L5.26 3.35L5.26 3.35Q5.77 4.40 6.23 5.47L6.23 5.47L6.23 5.47Q6.69 6.54 7.16 7.71L7.16 7.71L7.16 7.71Q7.63 8.89 8.12 10.20L8.12 10.20L8.12 10.20Q8.61 11.51 9.17 13.05L9.17 13.05ZM2.80 9.45L6.41 9.45L6.41 9.45Q5.96 8.23 5.52 7.09L5.52 7.09L5.52 7.09Q5.08 5.95 4.61 4.90L4.61 4.90L4.61 4.90Q4.12 5.95 3.68 7.09L3.68 7.09L3.68 7.09Q3.23 8.23 2.80 9.45L2.80 9.45ZM12.10 12.11L12.10 12.11L12.10 12.11Q12.89 12.11 13.28 11.90L13.28 11.90L13.28 11.90Q13.66 11.69 13.66 11.23L13.66 11.23L13.66 11.23Q13.66 10.75 13.29 10.47L13.29 10.47L13.29 10.47Q12.91 10.19 12.04 9.84L12.04 9.84L12.04 9.84Q11.62 9.67 11.23 9.50L11.23 9.50L11.23 9.50Q10.85 9.32 10.57 9.09L10.57 9.09L10.57 9.09Q10.29 8.85 10.12 8.51L10.12 8.51L10.12 8.51Q9.95 8.18 9.95 7.69L9.95 7.69L9.95 7.69Q9.95 6.72 10.67 6.15L10.67 6.15L10.67 6.15Q11.38 5.59 12.61 5.59L12.61 5.59L12.61 5.59Q12.92 5.59 13.23 5.62L13.23 5.62L13.23 5.62Q13.54 5.66 13.80 5.71L13.80 5.71L13.80 5.71Q14.07 5.75 14.27 5.81L14.27 5.81L14.27 5.81Q14.48 5.87 14.59 5.91L14.59 5.91L14.35 7.03L14.35 7.03Q14.14 6.92 13.69 6.80L13.69 6.80L13.69 6.80Q13.24 6.68 12.61 6.68L12.61 6.68L12.61 6.68Q12.07 6.68 11.66 6.89L11.66 6.89L11.66 6.89Q11.26 7.11 11.26 7.57L11.26 7.57L11.26 7.57Q11.26 7.81 11.35 7.99L11.35 7.99L11.35 7.99Q11.44 8.18 11.63 8.32L11.63 8.32L11.63 8.32Q11.82 8.47 12.10 8.60L12.10 8.60L12.10 8.60Q12.38 8.72 12.77 8.86L12.77 8.86L12.77 8.86Q13.29 9.06 13.69 9.25L13.69 9.25L13.69 9.25Q14.10 9.44 14.38 9.69L14.38 9.69L14.38 9.69Q14.67 9.94 14.83 10.30L14.83 10.30L14.83 10.30Q14.98 10.65 14.98 11.17L14.98 11.17L14.98 11.17Q14.98 12.18 14.23 12.70L14.23 12.70L14.23 12.70Q13.48 13.22 12.10 13.22L12.10 13.22L12.10 13.22Q11.13 13.22 10.58 13.05L10.58 13.05L10.58 13.05Q10.04 12.89 9.84 12.81L9.84 12.81L10.08 11.69L10.08 11.69Q10.30 11.77 10.79 11.94L10.79 11.94L10.79 11.94Q11.28 12.11 12.10 12.11ZM17.95 13.05L16.65 13.05L16.65 2.41L17.95 2.18L17.95 5.91L17.95 5.91Q18.31 5.77 18.73 5.69L18.73 5.69L18.73 5.69Q19.14 5.61 19.54 5.61L19.54 5.61L19.54 5.61Q20.41 5.61 20.99 5.86L20.99 5.86L20.99 5.86Q21.56 6.10 21.90 6.54L21.90 6.54L21.90 6.54Q22.25 6.99 22.39 7.60L22.39 7.60L22.39 7.60Q22.53 8.22 22.53 8.96L22.53 8.96L22.53 13.05L21.22 13.05L21.22 9.24L21.22 9.24Q21.22 8.57 21.13 8.09L21.13 8.09L21.13 8.09Q21.04 7.62 20.83 7.32L20.83 7.32L20.83 7.32Q20.62 7.03 20.27 6.89L20.27 6.89L20.27 6.89Q19.92 6.76 19.40 6.76L19.40 6.76L19.40 6.76Q19.19 6.76 18.97 6.79L18.97 6.79L18.97 6.79Q18.75 6.82 18.54 6.85L18.54 6.85L18.54 6.85Q18.34 6.89 18.18 6.93L18.18 6.93L18.18 6.93Q18.02 6.97 17.95 7L17.95 7L17.95 13.05ZM30.44 5.77L30.44 12.84L30.44 12.84Q29.99 12.95 29.25 13.08L29.25 13.08L29.25 13.08Q28.52 13.20 27.55 13.20L27.55 13.20L27.55 13.20Q26.71 13.20 26.14 12.96L26.14 12.96L26.14 12.96Q25.56 12.71 25.21 12.26L25.21 12.26L25.21 12.26Q24.86 11.82 24.71 11.21L24.71 11.21L24.71 11.21Q24.56 10.60 24.56 9.86L24.56 9.86L24.56 5.77L25.86 5.77L25.86 9.58L25.86 9.58Q25.86 10.91 26.28 11.48L26.28 11.48L26.28 11.48Q26.70 12.05 27.69 12.05L27.69 12.05L27.69 12.05Q27.90 12.05 28.13 12.04L28.13 12.04L28.13 12.04Q28.35 12.03 28.55 12.01L28.55 12.01L28.55 12.01Q28.74 11.98 28.90 11.96L28.90 11.96L28.90 11.96Q29.06 11.94 29.13 11.91L29.13 11.91L29.13 5.77L30.44 5.77Z"></path></g><!----><g data-v-423bf9ae="" id="aff092bb-d3aa-4ff9-aa51-34bb14cc0a69" transform="matrix(1.107444405555725,0,0,1.107444405555725,-10.919941902160645,0.7927806377410889)" stroke="none" fill="black"><path d="M85 48.323V36.726l3.843-2.051-4.259-2.066c-.133-2.119-.769-5.797-3.038-8.182-1.441-1.513-3.206-2.28-5.442-2.28-.082 0-8.104.138-8.104 12.038v9.712c.041.468-.214 1.721-.973 2.549-.508.553-1.315.821-2.398.821-1.086 0-2.101-.268-2.607-.821-.76-.829-1.022-2.228-1.022-2.686v-1.798l4.332-2.054-3.995-2.054.062-16.829 3.903-2.051L61 16.922v-4.719C61 .303 49.569.165 49.452.165c-4.035 0-7.062 1.181-9.225 3.511-2.135 2.302-2.693 5.158-2.858 6.944l-3.808 2.074L38 14.745V30.53l-4.102 2.051L38 34.632v19.743c.041.471-.479 1.709-1.238 2.536-.507.553-1.359.822-2.443.822s-1.897-.27-2.403-.822c-.76-.827-.84-2.225-.801-2.684l-.008-1.8 4.103-2.054-4.107-2.052.002-3.671c0-11.9-8.124-12.038-8.206-12.038-2.235 0-4.276.767-5.718 2.28C13.905 38.332 14 44.467 14 44.65v.533l-4.102 2.051L14 49.285V61.93l-3.925 2.051 4.401 2.156c.283 1.125 1.291 2.678 2.796 4.26C20.977 74.293 28 76.362 38 76.56v6.305l-4.102 2.05L38 86.965v9.984l.611.418c3.601 1.638 7.212 2.468 11.04 2.468 6.535 0 10.661-2.421 10.846-2.523l.503-.451v-4.663l4.101-2.05L61 88.098V76.499l4.101-2.052L61 72.397v-6.304c11-.192 17.93-2.326 21.396-6.352C84.64 57.138 85 54.647 85 53.982v-1.558l4.101-2.051L85 48.323z"></path></g><!----></svg>